<svg xmlns="http://www.w3.org/2000/svg" viewBox="0 0 200 200"><defs><style>.cls-1,.cls-3{fill:#99c6b7;}.cls-2{fill:#add1c5;}.cls-3{stroke:#99c6b7;stroke-miterlimit:10;stroke-width:0.5px;}</style></defs><title>Mesa de trabajo 24</title><g id="Capa_1" data-name="Capa 1"><path class="cls-1" d="M131.4,41.92l-12.3-12.3a13,13,0,0,0-9.23-3.82H35.16a13.06,13.06,0,0,0-13,13.05v122.4a13.07,13.07,0,0,0,13,13.05h87a13.07,13.07,0,0,0,13.06-13.05V51.15A13,13,0,0,0,131.4,41.92Zm-4.88,119.33a4.35,4.35,0,0,1-4.35,4.35h-87a4.35,4.35,0,0,1-4.35-4.35V38.85a4.35,4.35,0,0,1,4.35-4.35h65.26V56.25a4.35,4.35,0,0,0,4.35,4.35h21.75V161.25Zm0-109.35h-17.4V34.5a4.72,4.72,0,0,1,3.82,1.27l12.31,12.31A4.74,4.74,0,0,1,126.52,51.9Z"/><path class="cls-2" d="M68.46,137.75a3.25,3.25,0,0,1-2.65-1.37L51.64,116.5a3.25,3.25,0,1,1,5.29-3.77l11.53,16.16L106,76.18a3.25,3.25,0,0,1,5.3,3.77L71.11,136.38A3.25,3.25,0,0,1,68.46,137.75Z"/><path class="cls-3" d="M175.52,122.46a21.44,21.44,0,0,0,2.37-10l-.67-73.18a2,2,0,0,0-2-1.93h-.4l0-5.82a5.84,5.84,0,0,0-5.94-5.83l-3.41.06a5.85,5.85,0,0,0-5.75,5.89l.05,5.82h-2.13a9.71,9.71,0,0,0-9.7,9.83l.2,22a1.95,1.95,0,1,0,3.89,0l-.2-22a5.84,5.84,0,0,1,5.6-5.89l.36,39,0,3.9.26,28.36a21.38,21.38,0,0,0,2.56,10l5.8,10.78a2,2,0,0,0,3.45,0Zm-10-92.81,3.41,0a2,2,0,0,1,1.4.55,2,2,0,0,1,.58,1.39l0,5.85-7.27.06-.06-5.83a2,2,0,0,1,1.92-2Zm-4.2,11.72,12-.11.27,29.24-12,.11Zm.31,33.13,12-.11,0,5.85-12,.11Zm.09,9.74,12-.11.26,28.36c0,.29,0,.58,0,.86l-11.95.11c0-.28,0-.57,0-.85Zm2.35,36.51a17.35,17.35,0,0,1-1.39-3.4l10.68-.09a17.56,17.56,0,0,1-1.33,3.42l-3.91,7.6Zm0,0"/></g></svg>