<svg xmlns="http://www.w3.org/2000/svg" viewBox="0 0 200 200"><defs><style>.cls-1{fill:#99c6b7;}</style></defs><title>Mesa de trabajo 19</title><g id="Capa_1" data-name="Capa 1"><path class="cls-1" d="M169.67,72.51a12.84,12.84,0,0,0-18.27,0l-13,13.09V51.15a13,13,0,0,0-3.78-9.22L122.5,29.63a12.78,12.78,0,0,0-9.13-3.82H39.46a13,13,0,0,0-12.91,13v122.3a13,13,0,0,0,12.91,13h86.08a13,13,0,0,0,12.91-13V122.5L169.67,91A13.13,13.13,0,0,0,169.67,72.51Zm-43.39,50L124,124.85l-9.13,3.07,3-9.22,2.32-2.35Zm6.09-6.15-6.09-6.15L147,89.29l6.09,6.15Zm-16-80.57,12.18,12.3a4.8,4.8,0,0,1,1.26,3.82H112.63V34.51A4.68,4.68,0,0,1,116.41,35.78Zm9.13,129.71H39.46a4.33,4.33,0,0,1-4.3-4.34V38.85a4.33,4.33,0,0,1,4.3-4.34H104V56.24a4.33,4.33,0,0,0,4.31,4.35h21.52V94.3l-12.7,12.83-6.09,6.15a4.52,4.52,0,0,0-1,1.7l-6.08,18.44a4.36,4.36,0,0,0,1,4.45,4.28,4.28,0,0,0,4.4,1l18.26-6.15a4.16,4.16,0,0,0,1.68-1.05l.53-.53v30A4.33,4.33,0,0,1,125.54,165.49Zm38-80.69-4.44,4.49-6.09-6.15,4.44-4.49a4.29,4.29,0,0,1,6.09,0A4.37,4.37,0,0,1,163.58,84.8Z"/><path class="cls-1" d="M48.07,78h60.26a4.35,4.35,0,0,0,0-8.7H48.07a4.35,4.35,0,0,0,0,8.7Z"/><path class="cls-1" d="M48.07,95.36h43a4.35,4.35,0,0,0,0-8.69h-43a4.35,4.35,0,0,0,0,8.69Z"/><path class="cls-1" d="M48.07,112.75h43a4.35,4.35,0,0,0,0-8.69h-43a4.35,4.35,0,0,0,0,8.69Z"/><path class="cls-1" d="M95.41,125.79a4.32,4.32,0,0,0-4.3-4.35h-43a4.35,4.35,0,0,0,0,8.7h43A4.32,4.32,0,0,0,95.41,125.79Z"/><path class="cls-1" d="M108.33,148.1H82.5a4.35,4.35,0,0,0,0,8.7h25.83a4.35,4.35,0,0,0,0-8.7Z"/></g></svg>