<svg xmlns="http://www.w3.org/2000/svg" viewBox="0 0 200 200"><defs><style>.cls-1,.cls-2{fill:#99c6b7;}.cls-1{stroke:#99c6b7;stroke-miterlimit:10;stroke-width:0.5px;}</style></defs><title>Mesa de trabajo 22</title><g id="Capa_1" data-name="Capa 1"><path class="cls-1" d="M25,51.44a1.51,1.51,0,0,1-1.43-1A33.71,33.71,0,1,1,89.29,39.86a1.51,1.51,0,0,1-3,0,30.69,30.69,0,1,0-59.84,9.61,1.51,1.51,0,0,1-1,1.9,1.28,1.28,0,0,1-.47.07Zm0,0"/><path class="cls-1" d="M63,105.6h-.1c-16-1-37.12-10.41-40.69-14.58a1.52,1.52,0,0,1-.28-1.5C26.52,77.09,27,64.26,23.54,50.31a1.51,1.51,0,0,1,1.09-1.83,1.49,1.49,0,0,1,1.84,1.09C30,63.79,29.59,76.9,25.13,89.62c4.2,3.51,21.93,11.44,36.41,12.85.41-6.15,4.69-16.8,5.22-18.11a1.5,1.5,0,0,1,1.4-.94H84a2.32,2.32,0,0,0,2.31-2.31V64a1.51,1.51,0,0,1,1.5-1.52h6.09c-2.91-5.75-7.67-18.5-7.67-22.57a1.51,1.51,0,1,1,3,0c0,4.38,6.73,21,8.45,23.15a1.52,1.52,0,0,1,.17,1.59,1.5,1.5,0,0,1-1.35.85h-7.2V81.11A5.32,5.32,0,0,1,84,86.42H69.19c-1.71,4.35-5,13.74-4.65,17.54a1.48,1.48,0,0,1-.41,1.19,1.52,1.52,0,0,1-1.09.45Zm0,0"/><path class="cls-2" d="M139.31,48.1A22.25,22.25,0,0,0,124.2,27a1.14,1.14,0,0,0-.73,2.17,20,20,0,0,1,0,37.79,1.14,1.14,0,0,0,.37,2.22,1.13,1.13,0,0,0,.36-.06A22.26,22.26,0,0,0,139.31,48.1Zm0,0"/><path class="cls-2" d="M123.86,70A2,2,0,0,1,122,68.71a1.94,1.94,0,0,1,1.21-2.46,19.17,19.17,0,0,0,0-36.29A1.94,1.94,0,0,1,122,27.5a1.9,1.9,0,0,1,1-1.12,1.93,1.93,0,0,1,1.49-.09,23,23,0,0,1,0,43.63A2,2,0,0,1,123.86,70Zm0-42.24a.33.33,0,0,0-.15,0,.36.36,0,0,0-.17.19.35.35,0,0,0,.22.44,20.75,20.75,0,0,1,0,39.3.43.43,0,0,0-.21.18.37.37,0,0,0,0,.26.34.34,0,0,0,.32.24A21.43,21.43,0,0,0,124,27.8Z"/><path class="cls-2" d="M130.66,21.29a1.14,1.14,0,1,0-.89,2.1A26.84,26.84,0,0,1,129,73.12a1.14,1.14,0,0,0,.41,2.2,1.23,1.23,0,0,0,.42-.07,29.12,29.12,0,0,0,.85-54Zm0,0"/><path class="cls-2" d="M129.39,76.12a1.94,1.94,0,0,1-.7-3.74,26,26,0,0,0,.77-48.25,1.9,1.9,0,0,1-1-1.06,1.86,1.86,0,0,1,0-1.48,1.94,1.94,0,0,1,2.54-1h0A29.91,29.91,0,0,1,130.1,76,2,2,0,0,1,129.39,76.12ZM130.21,22a.36.36,0,0,0-.32.21.38.38,0,0,0,0,.26.34.34,0,0,0,.19.19,27.63,27.63,0,0,1-.81,51.2.36.36,0,0,0-.2.45.34.34,0,0,0,.32.21,28.29,28.29,0,0,0,1-52.49h0A.35.35,0,0,0,130.21,22Z"/><path class="cls-2" d="M129,48.1A15.49,15.49,0,0,0,117.9,33.3a1.14,1.14,0,0,0-.63,2.2,13.12,13.12,0,0,1,0,25.21,1.14,1.14,0,0,0,.31,2.23,1.17,1.17,0,0,0,.32,0A15.49,15.49,0,0,0,129,48.1Zm0,0"/><path class="cls-2" d="M117.58,63.74a2,2,0,0,1-1.86-1.4,1.93,1.93,0,0,1,.17-1.47,1.89,1.89,0,0,1,1.16-.93,12.32,12.32,0,0,0,0-23.67,2,2,0,0,1-1.33-2.41,1.92,1.92,0,0,1,.92-1.15,1.87,1.87,0,0,1,1.48-.17,16.19,16.19,0,0,1,0,31.12A1.75,1.75,0,0,1,117.58,63.74Zm0-29.68a.33.33,0,0,0-.32.24.34.34,0,0,0,.23.43,13.92,13.92,0,0,1,0,26.74.32.32,0,0,0-.2.17.28.28,0,0,0,0,.25.33.33,0,0,0,.32.25,14.59,14.59,0,0,0,.1-28.07Z"/><path class="cls-1" d="M175,137a1.28,1.28,0,0,1-.47-.07,1.51,1.51,0,0,1-1-1.9,30.69,30.69,0,1,0-59.84-9.61,1.51,1.51,0,0,1-3,0,33.71,33.71,0,1,1,65.72,10.55,1.51,1.51,0,0,1-1.43,1Zm0,0"/><path class="cls-1" d="M137,191.13a1.52,1.52,0,0,1-1.09-.45,1.48,1.48,0,0,1-.41-1.19c.35-3.8-2.94-13.19-4.65-17.54H116a5.32,5.32,0,0,1-5.32-5.31V151h-7.2a1.5,1.5,0,0,1-1.35-.85,1.52,1.52,0,0,1,.17-1.59c1.72-2.15,8.45-18.77,8.45-23.15a1.51,1.51,0,1,1,3,0c0,4.07-4.76,16.82-7.67,22.57h6.09a1.51,1.51,0,0,1,1.5,1.52v17.16A2.32,2.32,0,0,0,116,169h15.88a1.5,1.5,0,0,1,1.4.94c.53,1.31,4.81,12,5.22,18.11,14.48-1.41,32.21-9.34,36.41-12.85-4.46-12.72-4.89-25.83-1.34-40.05a1.49,1.49,0,0,1,1.84-1.09,1.51,1.51,0,0,1,1.09,1.83c-3.49,13.95-3,26.78,1.57,39.21a1.52,1.52,0,0,1-.28,1.5c-3.57,4.17-24.66,13.56-40.69,14.58Zm0,0"/><path class="cls-2" d="M60,165.42a22.26,22.26,0,0,0,15.07,21.06,1.24,1.24,0,0,0,.37.06,1.14,1.14,0,0,0,.37-2.22,20,20,0,0,1,0-37.79,1.15,1.15,0,0,0-.74-2.17A22.24,22.24,0,0,0,60,165.42Zm0,0"/><path class="cls-2" d="M75.43,187.74a2.27,2.27,0,0,1-.72-.12,23.44,23.44,0,0,1,0-44.39,2.34,2.34,0,0,1,1.51,4.43,18.76,18.76,0,0,0,0,35.53,2.32,2.32,0,0,1,1.35,1.2,2.27,2.27,0,0,1,.1,1.77A2.32,2.32,0,0,1,75.43,187.74Z"/><path class="cls-2" d="M68.64,138.61a29.12,29.12,0,0,0,.85,54,1.14,1.14,0,1,0,.82-2.13,26.84,26.84,0,0,1-.78-49.73,1.14,1.14,0,1,0-.89-2.1Zm0,0"/><path class="cls-2" d="M69.9,193.84a2.39,2.39,0,0,1-.83-.15,30.31,30.31,0,0,1-.9-56.18h0a2.35,2.35,0,0,1,3.07,1.24,2.32,2.32,0,0,1,0,1.79A2.36,2.36,0,0,1,70,141.82a25.63,25.63,0,0,0,.76,47.5,2.36,2.36,0,0,1,1.33,3A2.32,2.32,0,0,1,69.9,193.84Z"/><path class="cls-2" d="M70.26,165.42a15.5,15.5,0,0,0,11.14,14.8,1.12,1.12,0,0,0,.32,0A1.14,1.14,0,0,0,82,178a13.12,13.12,0,0,1,0-25.21,1.14,1.14,0,0,0-.63-2.2,15.5,15.5,0,0,0-11.14,14.8Zm0,0"/><path class="cls-2" d="M81.71,181.46a2.07,2.07,0,0,1-.66-.1,16.6,16.6,0,0,1,0-31.89,2.34,2.34,0,0,1,2.7,3.37,2.3,2.3,0,0,1-1.4,1.13,11.93,11.93,0,0,0,0,22.91,2.33,2.33,0,0,1,1.59,2.9A2.34,2.34,0,0,1,81.71,181.46Z"/></g></svg>