<svg xmlns="http://www.w3.org/2000/svg" viewBox="0 0 200 200"><defs><style>.cls-1{fill:#99c6b7;}</style></defs><title>Mesa de trabajo 20</title><g id="Capa_1" data-name="Capa 1"><path class="cls-1" d="M194.14,59.2c-.38-.51-9.57-12.44-21.9-13.12-9.78-.53-21-11.31-23.81-14.17L150,29.37a1.27,1.27,0,0,0-.44-1.76,1.29,1.29,0,0,0-1.77.43l-2,3.31a.09.09,0,0,0,0,0l0,0L109.25,92a1.27,1.27,0,0,0,.44,1.76,1.29,1.29,0,0,0,1.77-.43l15.68-26a69.49,69.49,0,0,0,12.55,10c3.92,2.36,8.27,4.22,12.49,4.45,11.13.6,19.9,12,20,12.11a1.28,1.28,0,0,0,2.13-.12l19.92-33.07A1.3,1.3,0,0,0,194.14,59.2ZM173,90.84c-2.9-3.32-10.79-11.15-20.71-11.69-9.77-.53-21-11.31-23.81-14.17L147.06,34.2c3.61,3.61,14.73,13.89,25,14.45,9.55.52,17.36,9,19.45,11.44Z"/><path class="cls-1" d="M173.2,95.53a2.5,2.5,0,0,1-2-1c-.1-.13-8.6-11.07-19.1-11.65-3.93-.21-8.32-1.76-13.05-4.61a69.17,69.17,0,0,1-11.69-9.12l-14.9,24.74a2.48,2.48,0,0,1-3.41.85,2.44,2.44,0,0,1-1.13-1.53,2.48,2.48,0,0,1,.28-1.88l38.51-63.93a2.5,2.5,0,0,1,3.41-.85A2.49,2.49,0,0,1,151,30l-1.05,1.74c3.24,3.19,13.59,12.68,22.36,13.16,13,.71,22.4,13.07,22.79,13.59a2.48,2.48,0,0,1,.15,2.78L175.32,94.33a2.49,2.49,0,0,1-2,1.2ZM126.91,65.34,128,66.42a67.73,67.73,0,0,0,12.32,9.83c4.39,2.64,8.4,4.08,11.94,4.27,11.68.64,20.82,12.51,20.9,12.63l20-33.13v-.1c-.09-.12-9.14-12-21-12.64-10.12-.55-21.38-11.26-24.59-14.53l-.65-.66,2-3.33-2.33,3.5L110.27,92.59Zm46.3,27.51-1.08-1.23c-2.82-3.22-10.42-10.76-19.87-11.28-10.12-.54-21.39-11.25-24.6-14.52l-.65-.66,19.81-32.89,1.08,1.08c3.17,3.17,14.26,13.56,24.27,14.1s18.05,9.22,20.29,11.87L193,60ZM130,64.8C133.27,68,143.61,77.48,152.39,78c9.29.51,16.81,7.06,20.45,10.89l17.24-28.62c-2.67-3-9.73-9.92-18-10.38-9.76-.53-19.9-9.07-24.74-13.73Z"/><path class="cls-1" d="M186,71.68a1.58,1.58,0,0,1-1.21-.56c-2.06-2.43-9.47-10.4-18.32-10.88-10.59-.58-22.1-11-26.56-15.5a1.59,1.59,0,1,1,2.26-2.25c3.28,3.28,14.72,14,24.47,14.56,10.12.56,18.31,9.33,20.58,12a1.6,1.6,0,0,1-.18,2.25A1.57,1.57,0,0,1,186,71.68Z"/><path class="cls-1" d="M186,72.88a2.8,2.8,0,0,1-2.12-1c-2-2.35-9.1-10-17.48-10.47-11-.59-22.78-11.28-27.33-15.85a2.79,2.79,0,0,1,3.95-3.94c3.2,3.21,14.36,13.71,23.69,14.22,10.59.58,19.08,9.65,21.43,12.42a2.79,2.79,0,0,1-2.14,4.6Zm-45-29.67a.39.39,0,0,0-.28.12.42.42,0,0,0,0,.57c4.36,4.36,15.6,14.59,25.77,15.14,9.33.51,17,8.78,19.17,11.3a.34.34,0,0,0,.56,0,.4.4,0,0,0,0-.56c-2.19-2.59-10.1-11.06-19.73-11.58-10.18-.56-21.9-11.56-25.25-14.92A.4.4,0,0,0,141.08,43.21Z"/><path class="cls-1" d="M179.34,82.88a1.61,1.61,0,0,1-1.22-.56c-1.56-1.83-9.8-11-18.93-11.52-10.69-.58-21.81-10.63-26.09-14.92a1.59,1.59,0,0,1,2.26-2.25c3.14,3.15,14.14,13.45,24,14,10.18.55,18.8,9.81,21.19,12.64a1.59,1.59,0,0,1-.18,2.24A1.57,1.57,0,0,1,179.34,82.88Z"/><path class="cls-1" d="M179.34,84.08a2.81,2.81,0,0,1-2.13-1c-1.5-1.77-9.45-10.63-18.08-11.1-11.11-.61-22.5-10.88-26.87-15.27a2.79,2.79,0,1,1,4-3.94c3.06,3.07,13.77,13.12,23.22,13.63,10.65.58,19.56,10.15,22,13.06a2.79,2.79,0,0,1-2.13,4.6ZM134.23,54.36a.43.43,0,0,0-.28.11.42.42,0,0,0,0,.57c4.18,4.19,15,14,25.31,14.57,9.61.52,18.16,10,19.78,11.94a.34.34,0,0,0,.56,0,.45.45,0,0,0,0-.56C177.32,78.3,169,69.34,159.3,68.81c-10.3-.56-21.57-11.11-24.78-14.34A.44.44,0,0,0,134.23,54.36Z"/><path class="cls-1" d="M59.49,173.77H57.93c-8.26,0-15.8,0-21.49-2.17-6.76-2.59-10-7.94-10-16.35,0-9.55,4.08-21.8,10.57-31.16A30.16,30.16,0,0,0,6.79,95.34a2.4,2.4,0,0,1,0-4.79,35,35,0,0,1,34.37,28.29c5-5.38,10.93-8.93,17.29-8.93s12.48,3.66,17.52,9.17a35,35,0,0,1,34.4-28.53,2.4,2.4,0,0,1,0,4.79,30.17,30.17,0,0,0-30.18,29.12c6.35,9.31,10.32,21.37,10.32,30.79,0,8.41-3.29,13.76-10.05,16.35C74.9,173.73,67.42,173.77,59.49,173.77Zm-1-4.78H59c7.65,0,14.92,0,19.77-1.86s7-5.43,7-11.88c0-8.28-3.75-19.5-9.49-28a2.36,2.36,0,0,1-.71-1c-4.75-6.69-10.74-11.49-17.08-11.49-6.16,0-12,4.54-16.69,11a2.39,2.39,0,0,1-1.31,1.88c-5.62,8.5-9.27,19.54-9.27,27.72,0,6.45,2.08,10,7,11.88S50.31,169,57.92,169Zm0-66.93a16.7,16.7,0,1,1,16.76-16.7A16.75,16.75,0,0,1,58.45,102.06Zm0-28.61a11.91,11.91,0,1,0,12,11.91A12,12,0,0,0,58.45,73.45Z"/></g></svg>