<svg xmlns="http://www.w3.org/2000/svg" viewBox="0 0 200 200"><defs><style>.cls-1{fill:#99c6b7;}</style></defs><title>Mesa de trabajo 21</title><g id="Capa_1" data-name="Capa 1"><path class="cls-1" d="M21,92.59a2.13,2.13,0,0,1-2-1.48,48.1,48.1,0,1,1,93.78-15,2.16,2.16,0,0,1-4.31,0A43.79,43.79,0,1,0,23,89.77a2.13,2.13,0,0,1-1.37,2.71,1.92,1.92,0,0,1-.67.11Zm0,0"/><path class="cls-1" d="M75.28,169.88h-.14c-22.87-1.47-53-14.87-58.06-20.81a2.21,2.21,0,0,1-.4-2.14c6.49-17.75,7.22-36.06,2.25-56a2.15,2.15,0,0,1,4.17-1.06c5.07,20.29,4.45,39-1.91,57.16,6,5,31.29,16.32,52,18.33.59-8.77,6.7-24,7.45-25.84a2.16,2.16,0,0,1,2-1.35h22.66a3.31,3.31,0,0,0,3.3-3.29V110.43a2.15,2.15,0,0,1,2.14-2.16h8.69c-4.16-8.21-10.94-26.4-10.94-32.21a2.16,2.16,0,1,1,4.31,0c0,6.25,9.59,30,12,33a2.17,2.17,0,0,1,.25,2.27,2.12,2.12,0,0,1-1.93,1.21H112.85v22.35a7.59,7.59,0,0,1-7.6,7.58H84.06c-2.43,6.21-7.14,19.61-6.63,25a2.12,2.12,0,0,1-.59,1.7,2.15,2.15,0,0,1-1.56.65Zm0,0"/><path class="cls-1" d="M170.46,133.19a31.71,31.71,0,0,0-21.55-30,1.63,1.63,0,1,0-1,3.08,28.48,28.48,0,0,1,0,53.93,1.63,1.63,0,0,0,.53,3.18,1.89,1.89,0,0,0,.52-.09,31.76,31.76,0,0,0,21.51-30.05Zm0,0"/><path class="cls-1" d="M158.12,94.93a1.64,1.64,0,0,0-2.14.86,1.62,1.62,0,0,0,.87,2.13,38.3,38.3,0,0,1-1.12,71,1.62,1.62,0,0,0,.59,3.14,1.54,1.54,0,0,0,.59-.11,41.54,41.54,0,0,0,1.21-77Zm0,0"/><path class="cls-1" d="M155.8,133.19a22.09,22.09,0,0,0-15.88-21.12,1.63,1.63,0,1,0-.9,3.13,18.72,18.72,0,0,1,0,36,1.63,1.63,0,0,0,.44,3.19,1.88,1.88,0,0,0,.46-.06,22.1,22.1,0,0,0,15.88-21.11Zm0,0"/></g></svg>