<svg xmlns="http://www.w3.org/2000/svg" viewBox="0 0 200 200"><defs><style>.cls-1{fill:#99c6b7;}</style></defs><title>Mesa de trabajo 17</title><g id="Capa_1" data-name="Capa 1"><path class="cls-1" d="M148.46,27.47H70.93A9.55,9.55,0,0,0,61.39,37v.15h-.15A9.55,9.55,0,0,0,51.7,46.7v.15h-.16A9.55,9.55,0,0,0,42,56.39V163a9.55,9.55,0,0,0,9.54,9.54h77.53a9.55,9.55,0,0,0,9.54-9.54v-.15h.15a9.55,9.55,0,0,0,9.54-9.54v-.15h.16a9.55,9.55,0,0,0,9.54-9.54V37A9.55,9.55,0,0,0,148.46,27.47ZM65.93,37a5,5,0,0,1,5-5h77.53a5,5,0,0,1,5,5v63.14H148.3V46.7a9.55,9.55,0,0,0-9.54-9.54H65.93ZM56.24,46.7a5,5,0,0,1,5-5h77.52a5,5,0,0,1,5,5v63.14h-5.15V56.39a9.55,9.55,0,0,0-9.54-9.54H56.24Zm-4.7,4.69h77.53a5,5,0,0,1,5,5v63.14H46.55V56.39A5,5,0,0,1,51.54,51.39ZM134.07,163a5,5,0,0,1-5,5H51.54a5,5,0,0,1-5-5V124.08h87.52Zm9.69-9.69a5,5,0,0,1-5,5h-.15V114.39h5.15Zm4.7-4.69h-.16V104.69h5.15v38.92A5,5,0,0,1,148.46,148.61Z"/><path class="cls-1" d="M55.78,109.46a2.29,2.29,0,0,0,2.8-1.58l2.9-10.45H87.64l2.9,10.45a2.28,2.28,0,0,0,2.19,1.66,2.55,2.55,0,0,0,.61-.08,2.27,2.27,0,0,0,1.58-2.8L83.79,66.6a7.13,7.13,0,0,0-6.86-5.21H72.19a7.13,7.13,0,0,0-6.86,5.21L54.2,106.66A2.28,2.28,0,0,0,55.78,109.46ZM69.71,67.81a2.59,2.59,0,0,1,2.48-1.88h4.74a2.57,2.57,0,0,1,2.48,1.88l7,25.07H62.74Z"/><path class="cls-1" d="M110.9,109.54a13.13,13.13,0,0,0,8.82-3.4,4.71,4.71,0,0,0,4.51,3.4,2.27,2.27,0,1,0,0-4.54.15.15,0,0,1-.15-.15V83a2.28,2.28,0,0,0-4.55,0v1a13.16,13.16,0,0,0-21.8,9.94v2.43A13.19,13.19,0,0,0,110.9,109.54Zm-8.63-15.6a8.63,8.63,0,0,1,17.26,0v2.43a8.63,8.63,0,1,1-17.26,0Z"/></g></svg>